<?xml version="1.0"?>
<svg xmlns="http://www.w3.org/2000/svg" xmlns:xlink="http://www.w3.org/1999/xlink" id="Gradient" viewBox="0 0 512 512" width="512" height="512"><defs><linearGradient id="linear-gradient" x1="256" y1="496" x2="256" y2="16" gradientUnits="userSpaceOnUse"><stop offset="0" stop-color="#27c1e6"/><stop offset="0.5" stop-color="#c275e9"/><stop offset="1" stop-color="#f2515d"/></linearGradient></defs><path d="M456,16H56A40.045,40.045,0,0,0,16,56V392a40.045,40.045,0,0,0,40,40H197.754l-12,48H168a8,8,0,0,0,0,16H344a8,8,0,0,0,0-16H326.246l-12-48H456a40.045,40.045,0,0,0,40-40V56A40.045,40.045,0,0,0,456,16ZM202.246,480l12-48h83.508l12,48ZM480,392a24.028,24.028,0,0,1-24,24H56a24.028,24.028,0,0,1-24-24V368H480Zm0-40H32V96H480Zm0-272H32V56A24.028,24.028,0,0,1,56,32H456a24.028,24.028,0,0,1,24,24ZM64,56a8,8,0,1,1-8-8A8,8,0,0,1,64,56Zm32,0a8,8,0,1,1-8-8A8,8,0,0,1,96,56Zm32,0a8,8,0,1,1-8-8A8,8,0,0,1,128,56ZM344,288h46.254l11,40.33a8,8,0,0,0,14.578,2.012l15.941-26.57,26.57-15.941a8,8,0,0,0-2.012-14.578L448,270.981V232a8,8,0,0,0-8-8H344a8,8,0,0,0-8,8v48A8,8,0,0,0,344,288Zm77.825,3.081a8.007,8.007,0,0,0-2.744,2.744l-7.325,12.209L403.4,275.4l30.633,8.355ZM352,240h80v26.617l-37.9-10.335a8,8,0,0,0-9.822,9.822l1.608,5.9H352Zm0-104a8,8,0,0,1,8-8h64a8,8,0,0,1,0,16H360A8,8,0,0,1,352,136Zm-16,32a8,8,0,0,1,8-8h24a8,8,0,0,1,0,16H344A8,8,0,0,1,336,168Zm80-8h24a8,8,0,0,1,0,16H416a8,8,0,0,1,0-16Zm-80,40a8,8,0,0,1,8-8h24a8,8,0,0,1,0,16H344A8,8,0,0,1,336,200Zm112,0a8,8,0,0,1-8,8H416a8,8,0,0,1,0-16h24A8,8,0,0,1,448,200ZM232,392a8,8,0,0,1,8-8h32a8,8,0,0,1,0,16H240A8,8,0,0,1,232,392ZM60.794,257.231A24.868,24.868,0,0,0,56,272a24.6,24.6,0,0,0,8,18.316V304a24.028,24.028,0,0,0,24,24H200a24.027,24.027,0,0,0,23.976-23.037,141.131,141.131,0,0,1,61.494,6.627,8,8,0,0,0,10.509-7.02l8-112A8,8,0,0,0,296,184V144a8,8,0,0,0-8-8H264v-8a8,8,0,0,0-8-8H224a8,8,0,0,0-8,8v8H192a8,8,0,0,0-8,8v26.341A55.823,55.823,0,0,0,168,168H120a56.078,56.078,0,0,0-55.419,48H64a16.019,16.019,0,0,0-16,16A31.581,31.581,0,0,0,60.794,257.231ZM208,304a8.009,8.009,0,0,1-8,8H88a8.009,8.009,0,0,1-8-8v-8H208Zm1.454-24H78.546C74.937,280,72,276.411,72,272s2.937-8,6.546-8v-.107c.858.064,1.722.107,2.6.107a33.833,33.833,0,0,0,20.953-7.2,34.074,34.074,0,0,0,41.9,0,34.074,34.074,0,0,0,41.9,0,33.833,33.833,0,0,0,20.953,7.2c.875,0,1.739-.043,2.6-.107V264c3.609,0,6.546,3.589,6.546,8S213.063,280,209.454,280ZM264,152h16v32H264Zm-32-8v-8h16v48H232Zm55.408,56-6.676,93.467a155.665,155.665,0,0,0-55.105-4.77,25.1,25.1,0,0,0,1.579-31.466A31.581,31.581,0,0,0,240,232a16.019,16.019,0,0,0-16-16h-.581a55.52,55.52,0,0,0-4.833-16ZM200,152h16v32h-8.861A56.464,56.464,0,0,0,200,178.083Zm-80,32h48A40.069,40.069,0,0,1,207.2,216H80.805A40.069,40.069,0,0,1,120,184Zm104,47.99V232c0,8.822-7.69,16-17.143,16a17.442,17.442,0,0,1-14.387-7.307,8,8,0,0,0-13.131,0,17.818,17.818,0,0,1-28.774,0,8,8,0,0,0-13.13,0,17.818,17.818,0,0,1-28.774,0,8,8,0,0,0-13.131,0A17.442,17.442,0,0,1,81.143,248C71.69,248,64,240.822,64,232Z" style="fill:url(#linear-gradient)"/></svg>
