<svg height="511pt" viewBox="0 -10 511.99995 511" width="511pt" xmlns="http://www.w3.org/2000/svg"><path d="m504.445312 256.355469c0 87.507812-44.929687 141.664062-49.914062 149.246093-.28125.421876-.609375.761719-.988281 1.011719-.332031.230469-.683594.390625-1.074219.488281-313.785156 82.621094-291.515625 77.15625-294.222656 77.15625-.539063.011719-1.046875-.03125-1.648438-.300781-94.011718-41.136719-157.632812-138.820312-147.867187-250.03125 12.433593-141.808593 142.898437-245.128906 285.808593-222.960937 118.902344 18.46875 209.90625 121.316406 209.90625 245.390625zm0 0" fill="#1ab975"/><path d="m504.445312 256.355469c0 87.507812-44.929687 141.664062-49.914062 149.246093-.28125.421876-.609375.761719-.988281 1.011719-.441407.308594-.804688.410157-1.074219.488281-57.414062 15.121094-255.871094 67.410157-262.796875 69.261719-6.351563-4.332031-12.496094-8.941406-18.417969-13.816406-57.175781-47.03125-93.632812-118.332031-93.632812-198.148437 0-128.195313 94.054687-234.425782 216.917968-253.433594 118.902344 18.46875 209.90625 121.316406 209.90625 245.390625zm0 0" fill="#1ed688"/><path d="m453.542969 406.613281c-.441407.308594-.800781.410157-1.074219.488281-313.714844 82.597657-291.636719 77.15625-294.222656 77.15625 3.394531-6.542968 7.113281-12.867187 11.15625-18.96875.628906-.949218 1.25-1.871093 1.851562-2.742187 63.707032-93.070313 188.433594-117.441406 282.289063-55.933594zm0 0" fill="#a1ffbc"/><path d="m189.671875 476.363281c-33.164063 8.691407-29.585937 7.894531-31.425781 7.894531 3.394531-6.542968 7.113281-12.867187 11.15625-18.96875.628906-.949218 1.25-1.871093 1.851562-2.742187 5.921875 4.875 12.066406 9.484375 18.417969 13.816406zm0 0" fill="#7af4ab"/><path d="m119.730469 161.273438h-28.421875v-46.273438h55.75c6.925781 0 7.195312-13.847656 0-13.847656h-64.128906c-3.460938 0-6.921876 1.820312-6.921876 5.464844v122.425781c0 7.066406 15.300782 7.070312 15.300782 0v-55.019531h28.421875c7.164062 0 6.945312-12.75 0-12.75zm0 0"/><path d="m246.34375 226.855469c0-.726563-.179688-1.636719-.726562-2.550781l-26.964844-51.191407c15.304687-3.097656 27.144531-13.300781 27.144531-35.527343 0-27.691407-18.398437-36.433594-40.441406-36.433594h-33.339844c-3.28125.183594-5.464844 2.550781-5.464844 5.28125v122.425781c0 7.289063 15.300781 7.289063 15.300781 0v-53.558594h20.953126l27.507812 53.375c1.640625 3.097657 3.824219 6.015625 6.921875 6.015625 4.375 0 9.109375-3.828125 9.109375-7.835937zm-64.492188-64.308594v-47.546875h23.503907c15.121093 0 25.140625 6.558594 25.140625 23.683594 0 17.304687-10.019532 23.863281-25.140625 23.863281zm0 0"/><path d="m337.253906 220.480469h-56.476562v-46.457031h28.421875c3.644531 0 5.28125-3.277344 5.28125-6.191407 0-3.464843-2.003907-6.558593-5.28125-6.558593h-28.421875v-46.277344h56.476562c6.824219 0 7.261719-13.84375 0-13.84375h-64.855468c-3.460938 0-6.921876 1.820312-6.921876 5.464844v122.242187c0 3.644531 3.460938 5.464844 6.921876 5.464844h64.855468c7.257813.003906 6.832032-13.84375 0-13.84375zm0 0"/><path d="m430.894531 115c6.824219 0 7.261719-13.847656 0-13.847656h-64.855469c-3.460937 0-6.921874 1.820312-6.921874 5.464844v122.242187c0 3.644531 3.460937 5.46875 6.921874 5.46875h64.855469c7.257813 0 6.832031-13.847656 0-13.847656h-56.476562v-46.457031h28.421875c7.21875 0 6.835937-12.75 0-12.75h-28.421875v-46.277344h56.476562zm0 0"/><path d="m65.808594 271.984375h-19.917969c-3.824219 0-6.414063 2.140625-6.414063 4.5v73.253906c0 2.363281 2.589844 4.5 6.414063 4.5h19.917969c14.851562 0 26.445312-6.976562 26.445312-25.765625v-30.71875c0-18.792968-11.59375-25.769531-26.445312-25.769531zm11.816406 56.488281c0 8.773438-4.390625 12.9375-11.816406 12.9375h-11.703125v-56.597656h11.703125c7.425781 0 11.816406 4.164062 11.816406 12.941406zm0 0"/><path d="m151.210938 284.8125c6.0625 0 6.238281-12.828125 0-12.828125h-40.058594c-3.265625 0-6.414063 1.574219-6.414063 4.613281v73.027344c0 3.039062 3.148438 4.613281 6.414063 4.613281h40.058594c6.238281 0 6.0625-12.828125 0-12.828125h-31.84375v-22.617187h17.101562c6.222656 0 6.046875-11.476563 0-11.476563h-17.101562v-22.503906zm0 0"/><path d="m164.375 276.484375v73.140625c0 3.039062 3.148438 4.613281 6.414062 4.613281h35.667969c5.808594 0 5.898438-12.828125 0-12.828125h-27.453125v-64.925781c0-6.007813-14.628906-6.054687-14.628906 0zm0 0"/><path d="m218.835938 276.484375v73.140625c0 6.175781 14.625 6.113281 14.625 0v-73.140625c0-6.007813-14.625-6.054687-14.625 0zm0 0"/><path d="m263.167969 349.964844c2.246093 6.734375 16.949219 6.515625 18.902343 0 22.902344-75.085938 21.832032-71.269532 21.832032-71.902344 0-5.324219-12.667969-8.886719-14.179688-3.152344l-17.101562 60.988282-17.21875-60.988282c-1.527344-5.8125-15.582032-2.214844-13.953125 4.277344zm0 0"/><path d="m358.136719 284.8125c6.0625 0 6.234375-12.828125 0-12.828125h-40.0625c-3.261719 0-6.414063 1.574219-6.414063 4.613281v73.027344c0 3.039062 3.152344 4.613281 6.414063 4.613281h40.0625c6.234375 0 6.0625-12.828125 0-12.828125h-31.847657v-22.617187h17.105469c3.148438 0 4.613281-3.035157 4.613281-5.625 0-3.039063-1.6875-5.851563-4.613281-5.851563h-17.105469v-22.503906zm0 0"/><path d="m424.972656 295.503906c0-17.894531-11.929687-23.519531-26.667968-23.519531h-22.28125c-2.8125 0-4.726563 2.140625-4.726563 4.5v73.140625c0 6.109375 14.628906 6.175781 14.628906 0v-29.367188h9.453125l15.976563 31.054688c3.777343 7.550781 14.179687 1.164062 14.179687-4.164062 0-1.398438.292969.101562-15.304687-29.140626 8.441406-2.589843 14.742187-9.566406 14.742187-22.503906zm-26.667968 13.277344h-12.378907v-23.96875c8.292969 1.070312 24.417969-4.546875 24.417969 12.039062 0 8.890626-4.726562 11.929688-12.039062 11.929688zm0 0"/><path d="m491.472656 278.0625c0-3.601562-5.738281-6.078125-9.675781-6.078125-4.453125 0-2.820313.835937-21.605469 35.445313-18.6875-34.421876-16.859375-35.445313-21.605468-35.445313-4.40625 0-11.128907 3.070313-9.339844 7.539063 24.601562 42.878906 23.628906 40.082031 23.628906 41.746093v28.355469c0 6.109375 14.628906 6.179688 14.628906 0 .222656-28.859375-.429687-28.492188.453125-29.816406 24.238281-42.683594 23.515625-39.917969 23.515625-41.746094zm0 0"/><path d="m33.015625 347.328125c-64.375-157.675781 52.046875-331.820313 223.078125-331.820313 47.03125 0 92.59375 13.554688 131.761719 39.203126 3.464843 2.269531 8.117187 1.300781 10.386719-2.167969 2.269531-3.464844 1.300781-8.117188-2.167969-10.386719-41.617188-27.25-90.023438-41.65625-139.980469-41.65625-182.597656 0-305.199219 185.375-236.972656 352.503906 1.558594 3.820313 5.929687 5.683594 9.785156 4.109375 3.835938-1.566406 5.675781-5.945312 4.109375-9.785156zm0 0"/><path d="m420.855469 60.605469c-3.167969-2.667969-7.902344-2.261719-10.570313.902343-2.671875 3.171876-2.265625 7.902344.902344 10.574219 96.050781 80.929688 114.128906 222.496094 40.640625 324.621094-64.695313-39.902344-145.40625-41.667969-211.152344-6.382813-3.652343 1.960938-5.023437 6.507813-3.0625 10.160157 1.960938 3.652343 6.507813 5.023437 10.160157 3.0625 57.730468-30.984375 128.253906-31.328125 186.820312.503906-68.730469 18.105469-193.34375 50.929687-261.167969 68.855469 13.183594-20.816406 30.222657-39.230469 49.957031-53.875 3.328126-2.46875 4.023438-7.167969 1.554688-10.496094-2.472656-3.328125-7.171875-4.023438-10.496094-1.554688-24.332031 18.054688-44.839844 41.445313-59.664062 67.9375-45.859375-21.3125-84.453125-57.097656-109.164063-101.390624-2.019531-3.617188-6.589843-4.914063-10.207031-2.894532-3.621094 2.019532-4.917969 6.589844-2.898438 10.207032 46.414063 83.191406 122.648438 110.664062 122.753907 110.730468 4.113281 1.71875-16.1875 5.847656 277.914062-71.625 23.425781-6.316406 24.261719-5.683594 26.5-8.617187 83.453125-109.410157 64.589844-263.59375-38.820312-350.71875zm0 0"/></svg>