<?xml version="1.0" encoding="UTF-8"?>
<svg xmlns="http://www.w3.org/2000/svg" xmlns:xlink="http://www.w3.org/1999/xlink" width="1012.5pt" height="487.499991pt" viewBox="0 0 1012.5 487.499991" version="1.2">
<defs>
<clipPath id="clip1">
  <path d="M 375.484375 211 L 637.355469 211 L 637.355469 355.21875 L 375.484375 355.21875 Z M 375.484375 211 "/>
</clipPath>
<clipPath id="clip2">
  <path d="M 368.953125 205 L 643.628906 205 L 643.628906 337.421875 L 368.953125 337.421875 Z M 368.953125 205 "/>
</clipPath>
</defs>
<g id="surface1">
<g clip-path="url(#clip1)" clip-rule="nonzero">
<path style=" stroke:none;fill-rule:nonzero;fill:rgb(52.549744%,60.389709%,64.309692%);fill-opacity:1;" d="M 376.34375 211.0625 C 391.3125 210.949219 390.472656 212.257812 402.527344 213.363281 C 393.070312 213.820312 385.898438 214.1875 379.457031 214.1875 C 379.457031 261.195312 377.777344 308.207031 377.777344 355.21875 C 374.648438 294.785156 376.34375 225.53125 376.34375 211.0625 Z M 636.238281 211.0625 C 636.238281 225.53125 638.847656 270.71875 634.804688 332.746094 C 634.804688 285.738281 633.128906 261.195312 633.128906 214.1875 C 619.394531 214.1875 596.875 214.074219 583.144531 214.074219 C 607.441406 210.5 623.667969 211.0625 636.238281 211.0625 "/>
</g>
<g clip-path="url(#clip2)" clip-rule="nonzero">
<path style=" stroke:none;fill-rule:nonzero;fill:rgb(38.42926%,43.919373%,47.059631%);fill-opacity:1;" d="M 370.230469 323.925781 C 370.230469 272.492188 368.953125 256.457031 368.953125 205.023438 C 376.96875 205.023438 386.265625 205.113281 394.28125 205.113281 C 387.707031 208.480469 377.660156 208.148438 372.078125 208.148438 C 372.078125 223.148438 374.558594 269.011719 370.230469 323.925781 Z M 615.304688 205.023438 C 624.777344 205.023438 634.15625 205.023438 643.628906 205.023438 C 643.628906 256.457031 643.628906 285.8125 643.628906 337.242188 C 641.492188 296.878906 640.503906 223.148438 640.503906 208.148438 C 634.621094 208.148438 624.800781 209.523438 615.304688 205.023438 "/>
</g>
<path style=" stroke:none;fill-rule:nonzero;fill:rgb(54.899597%,32.159424%,100%);fill-opacity:1;" d="M 554.675781 171.699219 C 555.703125 168.828125 557.347656 165.414062 558.210938 163.640625 C 559.75 160.46875 562.875 156.046875 556.933594 155.003906 C 550.636719 153.898438 551.394531 159.03125 550.648438 162.289062 C 550.195312 164.257812 549.132812 167.589844 548.238281 170.074219 C 543.9375 169.691406 542.785156 171.851562 541.316406 175.652344 C 537.992188 184.25 534.039062 192.871094 531.035156 201.519531 L 534.46875 201.804688 C 537.398438 193.371094 539.984375 185.238281 543.207031 176.914062 C 545.46875 171.066406 556.886719 174.46875 555.285156 179.472656 C 553.035156 186.488281 548.945312 194.058594 549.332031 201.550781 C 551.910156 194.054688 555.554688 186.917969 557.691406 179.335938 C 558.859375 175.195312 558.597656 173.265625 554.675781 171.699219 Z M 553.1875 171.175781 C 552.769531 171.042969 552.328125 170.910156 551.847656 170.78125 C 551.289062 170.628906 550.765625 170.5 550.273438 170.398438 C 551.179688 167.847656 552.179688 164.671875 552.621094 162.742188 C 554.144531 156.101562 558.664062 157.742188 556.230469 162.761719 C 555.324219 164.632812 554.121094 168.167969 553.1875 171.175781 Z M 538.988281 202.097656 L 544.847656 186.648438 L 536.980469 201.886719 Z M 538.988281 202.097656 "/>
<path style=" stroke:none;fill-rule:nonzero;fill:rgb(66.268921%,76.858521%,81.568909%);fill-opacity:1;" d="M 560.074219 97.535156 C 557.835938 95.402344 554.222656 88.585938 552.167969 83.929688 C 550.140625 79.335938 549.078125 77.730469 545.625 74.753906 C 537.957031 68.140625 528.832031 63.496094 518.949219 60.964844 C 516.410156 60.316406 512.617188 61.324219 509.285156 63.199219 C 498.722656 53.894531 478.875 57.382812 469.144531 64.769531 C 463.773438 68.847656 456.632812 80.75 456.113281 90.722656 C 455.597656 100.667969 465.253906 109.316406 469.375 112.535156 C 467.40625 115.703125 472.113281 122.289062 473.164062 125.132812 C 474.410156 128.5 475.320312 128.828125 477.199219 127.765625 C 490.914062 120.023438 503.792969 114.847656 522.402344 122.902344 C 528.976562 125.753906 530.53125 121.773438 524.136719 119.0625 C 503.648438 110.375 490.1875 118.15625 476.9375 126.070312 C 475.621094 126.855469 470.558594 115.542969 473.699219 113.726562 C 492.484375 102.882812 506.535156 103.15625 527.746094 109.558594 C 533.222656 111.210938 525.164062 126.4375 532.039062 132.265625 C 528.957031 129.867188 534.222656 115.589844 534.929688 111.007812 C 535.214844 109.171875 534.601562 108.121094 533.546875 107.445312 C 539.292969 106.8125 542.820312 112.691406 541.9375 116.554688 C 545.742188 111.617188 539.3125 99.871094 530 106.242188 C 529.613281 106.160156 529.226562 106.074219 528.84375 105.984375 C 531.257812 103.019531 534.992188 100.78125 538.902344 100.566406 C 540.898438 100.457031 545.015625 101.074219 545.855469 103.59375 C 546.433594 99.15625 541.402344 97.710938 538.597656 97.863281 C 533.722656 98.128906 529.292969 101.71875 526.792969 105.503906 C 523.410156 104.722656 520.121094 104.054688 516.914062 103.523438 C 517.144531 103.4375 517.371094 103.347656 517.597656 103.246094 C 520.324219 102.019531 523.042969 96.554688 524.28125 94.464844 C 518.824219 95.257812 515.785156 100.671875 513.648438 102.046875 C 510.5 104.074219 509.613281 101.152344 511.839844 98.265625 C 516.8125 91.816406 533.933594 78.375 543.9375 93.449219 C 545.90625 88.109375 533.800781 83.558594 530.117188 83.769531 C 522.890625 84.179688 514.214844 92.539062 508.648438 96.570312 C 505.695312 98.707031 505.796875 100.894531 507.425781 102.378906 C 505.34375 102.234375 503.292969 102.167969 501.269531 102.191406 C 502.910156 98.445312 500.863281 94.859375 500.300781 90.019531 C 497.714844 93.363281 497.351562 98.242188 498.132812 102.300781 C 496.628906 102.390625 495.136719 102.535156 493.65625 102.734375 C 489.664062 96.949219 490.738281 89.660156 487.757812 84.21875 C 487.039062 88.121094 486.039062 98.320312 491.148438 103.125 C 490.097656 103.316406 489.046875 103.542969 488.007812 103.796875 C 486.421875 101.191406 485.511719 95.535156 482.945312 94.265625 C 477.902344 91.773438 478.007812 86.007812 474.058594 82.058594 C 476.339844 87.59375 478.988281 92.027344 479.589844 95.75 C 480.113281 98.976562 480.765625 103.195312 483.925781 104.953125 C 482.027344 105.574219 480.140625 106.324219 478.257812 107.1875 C 474.722656 101.605469 468.09375 91.640625 467.867188 87.089844 C 465.105469 93.078125 470.3125 104.144531 475.589844 108.492188 C 474.601562 109.011719 473.609375 109.570312 472.613281 110.164062 C 467.464844 104.257812 457.179688 100.675781 458.488281 90.492188 C 459.660156 81.34375 461.519531 70.300781 470.875 67.695312 C 479.25 65.359375 497.199219 59.105469 507.34375 64.425781 C 504.386719 66.535156 502.171875 69.300781 502.25 72.015625 C 504.472656 68.066406 513.492188 64.453125 518.449219 65.722656 C 528.078125 68.191406 536.125 70.589844 544.417969 75.921875 C 548.664062 78.652344 545.746094 80.585938 546.746094 84.8125 C 547.960938 89.96875 554.320312 96.523438 556.921875 99 C 559.554688 101.507812 561.617188 110.425781 561.855469 114.382812 C 562.503906 125.109375 555.101562 125.378906 555.085938 131.945312 C 559.109375 125.539062 567.164062 125.351562 567.75 114.675781 C 567.945312 111.074219 562.582031 99.921875 560.074219 97.535156 Z M 528.476562 133.394531 L 528.222656 135.597656 C 531.167969 138.054688 534.054688 139.164062 539.605469 137.980469 C 543.554688 137.140625 549.105469 135.066406 552.144531 131.390625 C 547.546875 134.054688 543.269531 135.390625 539.078125 136.148438 C 535.035156 136.882812 531.410156 135.738281 528.476562 133.394531 "/>
<path style=" stroke:none;fill-rule:nonzero;fill:rgb(66.268921%,76.858521%,81.568909%);fill-opacity:1;" d="M 496.46875 184.636719 C 491.054688 181.949219 485.398438 173.140625 481.941406 171.648438 C 479.085938 170.414062 485.59375 181.632812 494.941406 186.160156 C 501.027344 189.101562 502.570312 201.359375 503.324219 207.21875 C 503.363281 201.195312 502.855469 197.253906 502.535156 192.277344 C 502.3125 188.824219 499.480469 186.132812 496.46875 184.636719 Z M 508.425781 187.742188 C 504.535156 194.304688 503.4375 204.390625 504.027344 211.855469 C 506.316406 204.4375 506.652344 195.398438 510.628906 188.699219 C 515.039062 181.269531 529.078125 170.566406 538.160156 172.230469 C 529.488281 164.542969 512.761719 180.4375 508.425781 187.742188 Z M 493.851562 174.160156 C 495.617188 177.1875 497.117188 181.648438 497.613281 185.113281 C 498.800781 180.710938 497.65625 175.445312 496.558594 173.117188 C 494.777344 169.324219 486.078125 162.910156 482.410156 160.683594 C 475.449219 156.460938 474.410156 159.648438 476.144531 165.457031 C 476.601562 166.996094 476.964844 169.175781 477.40625 172.402344 C 479.390625 170.703125 478.734375 166.226562 478.386719 164.722656 C 476.898438 158.277344 492.871094 172.484375 493.851562 174.160156 Z M 513.757812 173.089844 C 517.839844 170.726562 521.667969 167.398438 525.214844 164.3125 C 528.328125 161.601562 526.355469 167.761719 529.199219 170.339844 C 529.886719 166.691406 530.78125 163.007812 530.183594 160.050781 C 528.761719 152.996094 515.390625 169.277344 512.246094 171.257812 C 508.804688 173.425781 510.042969 181.9375 509.28125 185.554688 C 512.84375 182.1875 511.035156 174.660156 513.757812 173.089844 Z M 603.71875 183.035156 C 602.75 177.207031 594.464844 175.621094 589.746094 176.386719 C 588.210938 176.636719 586.644531 176.992188 585.066406 177.421875 C 580.878906 174.679688 571.859375 170.46875 562.109375 178.8125 C 569.027344 176.585938 575.183594 175.675781 582.300781 178.253906 C 573.089844 181.277344 564.046875 186.5625 559.777344 189.5625 C 564.554688 187.335938 599.921875 171.746094 601.714844 182.164062 C 593.105469 179.351562 580.683594 181.4375 574.574219 188.40625 C 583.949219 185.839844 588.289062 180.238281 599.761719 184.300781 C 604.589844 186.007812 608.386719 190.765625 602.421875 193.292969 L 603.9375 194.355469 C 609.082031 191.339844 607.980469 185.574219 603.71875 183.035156 Z M 446.1875 175.253906 C 445.953125 175.140625 445.71875 175.03125 445.492188 174.9375 C 441.804688 173.441406 437.679688 176.152344 434.972656 178.378906 C 428.226562 176.542969 421.753906 177.167969 418.613281 181.445312 C 415.839844 180.828125 413.339844 180.566406 411.449219 180.773438 C 400.183594 182.023438 391.136719 194.304688 396.898438 197.402344 C 397.207031 189.867188 408.515625 183.035156 415.300781 183.296875 C 427.726562 183.773438 434.109375 189.167969 443.695312 196.003906 C 441.171875 190.679688 431.28125 185.226562 422.515625 182.496094 C 429.953125 176.738281 442.875 183.851562 449.421875 186.21875 C 446.21875 183.34375 442.292969 181.011719 438.289062 179.46875 C 440.234375 178.019531 443.535156 176.558594 445.710938 177.351562 C 448.679688 178.429688 455.117188 184.304688 459.679688 185.136719 C 456.636719 183.292969 452.496094 179.351562 448.78125 176.804688 C 457.242188 175.003906 469.773438 168.390625 476.273438 170.714844 C 476.882812 162.578125 455.054688 172.792969 446.1875 175.253906 "/>
<path style=" stroke:none;fill-rule:nonzero;fill:rgb(0%,29.019165%,67.83905%);fill-opacity:1;" d="M 494.632812 165.195312 C 498.433594 167.136719 504.253906 171.53125 510.058594 167.617188 C 515.476562 163.964844 522.535156 158.078125 525.851562 152.546875 C 528.863281 147.53125 529.0625 133.273438 528.6875 127.625 C 527.816406 114.523438 525.449219 147.414062 524.0625 149.722656 C 520.726562 155.28125 515.222656 160.898438 509.425781 163.929688 C 504.328125 166.589844 499.117188 164.910156 495.796875 163.023438 C 480.683594 154.441406 480.207031 142.433594 480.339844 128.199219 C 480.371094 124.933594 478.09375 128.019531 478.007812 129.355469 C 477.132812 143.058594 479.863281 157.644531 494.632812 165.195312 Z M 510.640625 213.664062 C 505.59375 214.460938 508.625 212.109375 510.503906 210.730469 C 523.527344 201.175781 538.242188 201.167969 553.410156 206.320312 C 551.167969 203.558594 532.933594 199.5 525.816406 200.878906 C 519.363281 202.125 513.03125 205.476562 507.789062 209.324219 C 504.65625 211.621094 498.691406 218.359375 508.074219 216.878906 C 518.148438 215.285156 526.648438 215.789062 534.859375 216.425781 C 541.300781 216.929688 549.214844 214.613281 557.128906 215.765625 C 550.25 212.601562 544.582031 212.503906 537.195312 211.929688 C 528.878906 211.28125 520.972656 212.03125 510.640625 213.664062 Z M 611.523438 202.992188 C 605.132812 193.371094 597.996094 184.347656 585.828125 188.238281 C 574.097656 191.988281 560.308594 197.148438 549.019531 202.242188 C 570.636719 200.367188 592.726562 177.070312 610.289062 203.503906 C 612.253906 206.457031 606.96875 207.023438 604.984375 207.210938 C 598.683594 207.816406 583.878906 208.515625 577.296875 213.1875 C 586.226562 210.171875 595.769531 210.121094 605.402344 208.695312 C 609.203125 208.132812 614.617188 207.648438 611.523438 202.992188 Z M 414.105469 191.308594 C 433.992188 189.199219 449.976562 203.933594 469.269531 207.667969 C 450.835938 201.554688 433.699219 184.453125 413.425781 186.613281 C 404.695312 187.542969 387.65625 197.300781 397.242188 207.277344 C 416.714844 227.542969 446.984375 212.808594 468.222656 222.898438 C 459.566406 210.867188 413.671875 224.328125 399.460938 205.492188 C 393.65625 197.792969 408.570312 191.898438 414.105469 191.308594 Z M 498.960938 211.761719 C 497.488281 208.226562 493.773438 208.085938 490.855469 208.152344 C 485.585938 208.273438 479.191406 208.695312 474.222656 208.046875 C 476.949219 210.363281 485.066406 211.132812 490.363281 211.011719 C 492.6875 210.957031 496.519531 211.644531 496.9375 214.054688 C 497.515625 217.445312 516.6875 250.246094 505.679688 239.996094 C 499.953125 234.664062 497.109375 228.152344 494.949219 220.804688 C 494.625 224.738281 496.09375 229.515625 498.285156 233.761719 C 488.558594 240.359375 476.699219 225.132812 469.667969 222.0625 C 472.503906 226.875 470.132812 231.058594 482.234375 236.578125 C 487.460938 238.960938 494.523438 239.144531 499.460938 235.878906 C 501.355469 239.0625 503.589844 241.765625 505.628906 243.3125 C 512.957031 248.878906 512.726562 243.976562 510.613281 238.089844 C 507.335938 228.960938 502.65625 220.640625 498.960938 211.761719 "/>
</g>
</svg>
