<svg id="Capa_1" enable-background="new 0 0 512 512" height="512" viewBox="0 0 512 512" width="512" xmlns="http://www.w3.org/2000/svg"><g><g><g><g><path d="m335.85 36.46v439.08c0 15.24-12.36 27.6-27.6 27.6h-243.42c-15.24 0-27.6-12.36-27.6-27.6v-439.08c0-15.24 12.36-27.6 27.6-27.6h243.42c15.24 0 27.6 12.36 27.6 27.6z" fill="#edf4fe"/></g></g></g><path d="m335.85 36.46v439.08c0 15.24-12.36 27.6-27.6 27.6h-121.71v-494.28h121.71c15.24 0 27.6 12.36 27.6 27.6z" fill="#d7e9fe"/><g><path d="m226.37 437c0 8.28-6.72 15-15 15h-49.66c-8.28 0-15-6.72-15-15s6.72-15 15-15h49.66c8.28 0 15 6.72 15 15z" fill="#4e6ba6"/></g><path d="m325.07 0h-277.06c-15.44 0-28.01 12.57-28.01 28.02v455.96c0 15.45 12.57 28.02 28.01 28.02h277.06c15.44 0 28.01-12.57 28.01-28.02v-455.96c0-15.45-12.57-28.02-28.01-28.02zm-1.99 482h-273.08v-452h30.34c3.06 28.07 26.9 50 55.78 50h100.84c28.88 0 52.72-21.93 55.78-50h30.34z" fill="#4e6ba6"/><path d="m211.37 452h-24.83v-30h24.83c8.28 0 15 6.72 15 15s-6.72 15-15 15z" fill="#28487a"/><path d="m353.08 28.02v455.96c0 15.45-12.57 28.02-28.01 28.02h-138.53v-30h136.54v-452h-30.34c-3.06 28.07-26.9 50-55.78 50h-50.42v-80h138.53c15.44 0 28.01 12.57 28.01 28.02z" fill="#28487a"/><g><path d="m492 179.14v153.72c0 32.61-26.53 59.14-59.14 59.14h-171.79c-32.61 0-59.14-26.53-59.14-59.14v-.68c0-8.8-4.8-16.88-12.53-21.1l-67.77-36.96c-4.82-2.63-7.82-7.68-7.82-13.17s3-10.54 7.81-13.17l67.79-37.01c7.72-4.21 12.52-12.29 12.52-21.09v-10.54c0-32.61 26.53-59.14 59.14-59.14h171.79c32.61 0 59.14 26.53 59.14 59.14z" fill="#ff775c"/></g><path d="m492 179.14v153.72c0 32.61-26.53 59.14-59.14 59.14h-86.85v-272h86.85c32.61 0 59.14 26.53 59.14 59.14z" fill="#f94e4e"/><g><path d="m361.015 223.89c0 8.28-6.72 15-15 15s-15-6.71-15-15l-.01-24.62c0-8.269 6.695-15 15.01-15 8.29.01 14.99 6.71 14.99 15z" fill="#d7e9fe"/></g><path d="m346.015 238.89v-54.62c8.29.01 14.99 6.71 14.99 15l.01 24.62c0 8.28-6.72 15-15 15z" fill="#b9dafc"/><path d="m422.035 284.91v17.82c0 8.96-17.04 15-17.04 15h-120.01s-15-6.71-15-15v-17.82c0-41.93 34.13-76.02 76.03-76.02 41.92 0 76.02 34.11 76.02 76.02z" fill="#edf4fe"/><path d="m422.035 284.91v17.82c0 8.96-17.04 15-17.04 15h-58.98v-108.84c41.92 0 76.02 34.11 76.02 76.02z" fill="#d7e9fe"/><g><g><path d="m437.655 312.73c0 8.29-6.72 15-15 15h-153.29c-8.28 0-15-6.71-15-15 0-8.28 6.72-15 15-15h153.29c8.28 0 15 6.72 15 15z" fill="#d7e9fe"/></g></g><path d="m437.655 312.73c0 8.29-6.72 15-15 15h-76.64v-30h76.64c8.28 0 15 6.72 15 15z" fill="#b9dafc"/></g></svg>