<svg id="Layer_5" enable-background="new 0 0 64 64" height="512" viewBox="0 0 64 64" width="512" xmlns="http://www.w3.org/2000/svg" xmlns:xlink="http://www.w3.org/1999/xlink"><linearGradient id="SVGID_1_" gradientUnits="userSpaceOnUse" x1="32" x2="32" y1="63" y2="1.012"><stop offset="0" stop-color="#9f2fff"/><stop offset="1" stop-color="#0bb1d3"/></linearGradient><path d="m29.632 1.644-28.632 16.783v2.573h7v27h-3c-2.206 0-4 1.794-4 4s1.794 4 4 4h33.472c.739 0 1.421.397 1.736 1.012 1.893 3.693 5.645 5.988 9.792 5.988h10c1.654 0 3-1.346 3-3s-1.346-3-3-3h-8c-.552 0-1-.448-1-1s.448-1 1-1h8c1.654 0 3-1.346 3-3s-1.346-3-3-3h-8c-.552 0-1-.448-1-1s.448-1 1-1h8c1.654 0 3-1.346 3-3s-1.346-3-3-3h-4v-20h7v-2.573l-28.632-16.783c-1.435-.842-3.301-.842-4.736 0zm31.368 42.356c0 .552-.448 1-1 1h-8c-1.654 0-3 1.346-3 3s1.346 3 3 3h8c.552 0 1 .448 1 1s-.448 1-1 1h-8c-1.654 0-3 1.346-3 3s1.346 3 3 3h8c.552 0 1 .448 1 1s-.448 1-1 1h-10c-3.394 0-6.464-1.878-8.013-4.901-.665-1.294-2.011-2.099-3.515-2.099h-33.472c-1.103 0-2-.897-2-2s.897-2 2-2h33.472c1.504 0 2.851-.805 3.516-2.1 1.548-3.022 4.618-4.9 8.012-4.9h10c.552 0 1 .448 1 1zm-20-8v6h-2v-6h-2v6h-2v-6h-2v6h-2v-6h-2v6h-2v-6h-2v6h-2v-6h-1c-2.206 0-4-1.794-4-4s1.794-4 4-4c.577 0 1.154.136 1.715.403l1.171.56.242-1.275c.625-3.296 3.516-5.688 6.872-5.688s6.247 2.392 6.872 5.688l.242 1.275 1.171-.56c.561-.267 1.138-.403 1.715-.403 2.206 0 4 1.794 4 4s-1.794 4-4 4zm-18 8h18v1.673c-.291.415-.556.854-.792 1.314-.315.616-.997 1.013-1.736 1.013h-15.472zm31-25v22h-4c-2.613 0-5.067.914-7 2.512v-5.595c2.834-.478 5-2.949 5-5.917 0-3.309-2.691-6-6-6-.489 0-.976.063-1.453.187-1.196-3.646-4.623-6.187-8.547-6.187s-7.351 2.541-8.547 6.187c-.477-.124-.964-.187-1.453-.187-3.309 0-6 2.691-6 6 0 2.968 2.166 5.439 5 5.917v10.083h-11v-29h-6.022l26.666-15.632c.822-.482 1.891-.482 2.713 0l26.665 15.632zm-30-9c-1.654 0-3 1.346-3 3s1.346 3 3 3 3-1.346 3-3-1.346-3-3-3zm0 4c-.552 0-1-.448-1-1s.448-1 1-1 1 .448 1 1-.448 1-1 1zm5-1c0 1.654 1.346 3 3 3s3-1.346 3-3-1.346-3-3-3-3 1.346-3 3zm4 0c0 .552-.448 1-1 1s-1-.448-1-1 .448-1 1-1 1 .448 1 1zm7 3c1.654 0 3-1.346 3-3s-1.346-3-3-3-3 1.346-3 3 1.346 3 3 3zm0-4c.552 0 1 .448 1 1s-.448 1-1 1-1-.448-1-1 .448-1 1-1zm-28 32h2v2h-2zm0-8h2v2h-2zm0 4h2v2h-2zm40-11h-2v-2h2zm0-8h-2v-2h2zm0 4h-2v-2h2z" fill="url(#SVGID_1_)"/></svg>